<svg  viewBox="0 0 765 856" fill="none" xmlns="http://www.w3.org/2000/svg">
<path d="M732.496 856H32.5038C23.8862 855.99 15.6244 852.566 9.53084 846.479C3.4373 840.392 0.00969726 832.139 0 823.531V32.4692C0.00969726 23.8608 3.4373 15.6078 9.53084 9.52071C15.6244 3.43366 23.8862 0.00968692 32.5038 0H732.496C741.114 0.00968319 749.376 3.43364 755.469 9.52069C761.563 15.6077 764.99 23.8608 765 32.4692V823.531C764.99 832.139 761.563 840.392 755.469 846.479C749.376 852.566 741.114 855.99 732.496 856V856Z" fill="#F2F2F2"/>
<path d="M697.295 55.0891H67.7046C61.8491 55.0971 56.2357 57.4243 52.0953 61.5603C47.9548 65.6964 45.6252 71.3038 45.6172 77.153V656.888C45.6252 662.737 47.9548 668.345 52.0953 672.481C56.2357 676.617 61.8491 678.944 67.7046 678.952H697.295C703.151 678.944 708.764 676.617 712.905 672.481C717.045 668.345 719.375 662.738 719.383 656.888V77.153C719.375 71.3038 717.045 65.6964 712.905 61.5603C708.764 57.4243 703.151 55.0971 697.295 55.0891V55.0891Z" fill="#26C1F9"/>
<path d="M395.281 321.507C389.165 311.403 381.918 300.614 370.568 297.315C357.425 293.494 343.923 301.084 332.47 308.575C298.22 330.975 265.237 355.251 233.671 381.291L233.706 381.683C258.281 379.99 282.856 378.297 307.431 376.604C325.187 375.381 343.552 373.989 359.243 365.599C365.197 362.415 371.001 358.162 377.748 357.866C386.131 357.497 393.44 363.346 399.184 369.456C433.161 405.598 442.994 460.869 481.113 492.623C457.076 433.407 428.376 376.189 395.281 321.507V321.507Z" fill="white"/>
<path d="M604.135 628.063C600.377 623.323 598.842 622.213 595.136 617.43C564.958 578.441 536.593 538.135 510.041 496.512C492.006 468.243 474.866 439.431 458.619 410.077C450.885 396.121 443.362 382.056 436.052 367.882C430.379 356.891 424.833 345.835 419.413 334.713C417.863 331.536 416.357 328.345 414.859 325.146C411.328 317.625 407.862 310.066 404.141 302.647C399.902 294.19 394.74 285.325 386.954 279.643C383.411 276.951 379.174 275.323 374.738 274.948C368.4 274.539 362.552 277.153 357.054 280.008C316.792 301.152 279.211 327.039 245.116 357.118C210.969 387.075 180.448 420.919 154.173 457.961C153.37 459.107 151.469 458.012 152.28 456.858C155.475 452.345 158.733 447.881 162.054 443.465C203.353 388.597 253.992 341.413 311.656 304.071C321.357 297.79 331.241 291.805 341.307 286.113C346.381 283.243 351.476 280.41 356.66 277.752C361.74 275.145 367.136 272.801 372.94 272.713C392.693 272.406 402.921 294.753 409.946 309.789C412.154 314.521 414.388 319.239 416.65 323.941C425.195 341.797 434.07 359.489 443.274 377.018C448.955 387.84 454.759 398.599 460.688 409.296C479.14 442.603 498.751 475.237 519.523 507.196C547.04 549.529 574.337 586.927 605.684 626.515C606.547 627.61 605.005 629.173 604.135 628.063Z" fill="#E4E4E4"/>
<path d="M243.164 346.083C242.016 344.805 240.876 343.527 239.721 342.249C230.612 332.186 220.838 322.24 208.33 316.471C202.366 313.633 195.855 312.126 189.249 312.053C182.433 312.239 175.713 313.703 169.438 316.369C166.455 317.559 163.538 318.91 160.665 320.348C157.383 321.999 154.159 323.759 150.95 325.533C144.926 328.863 138.98 332.34 133.112 335.962C121.437 343.169 110.128 350.927 99.1841 359.235C93.5109 363.544 87.9549 367.994 82.5159 372.585C77.4571 376.85 72.5006 381.229 67.6465 385.722C66.6085 386.679 65.0585 385.131 66.0966 384.174C67.3759 382.984 68.6699 381.801 69.9639 380.632C73.6191 377.332 77.3329 374.094 81.1052 370.92C87.9842 365.121 95.0412 359.547 102.276 354.197C113.527 345.871 125.166 338.111 137.191 330.916C143.201 327.323 149.293 323.881 155.467 320.589C157.332 319.596 159.218 318.625 161.126 317.705C165.455 315.524 169.953 313.694 174.577 312.235C181.127 310.119 188.056 309.439 194.893 310.242C201.494 311.201 207.854 313.399 213.637 316.719C225.919 323.576 235.444 334.18 244.714 344.528C245.65 345.579 244.107 347.135 243.164 346.083Z" fill="#E4E4E4"/>
<path d="M494.808 450.364L524.238 439.611L538.85 434.273C543.571 432.374 548.386 430.718 553.276 429.31C557.551 428.09 562.09 428.148 566.333 429.476C570.117 430.875 573.58 433.019 576.517 435.782C579.518 438.543 582.31 441.521 584.871 444.693C588.052 448.513 591.186 452.372 594.334 456.218C607.328 472.092 620.237 488.035 633.061 504.047C645.885 520.059 658.623 536.138 671.275 552.286C683.958 568.473 696.554 584.728 709.063 601.051C710.595 603.05 712.126 605.051 713.656 607.052C714.501 608.158 716.406 607.068 715.549 605.947C702.948 589.46 690.26 573.041 677.483 556.689C664.675 540.298 651.779 523.977 638.794 507.725C625.809 491.474 612.736 475.293 599.576 459.182C596.297 455.169 593.013 451.159 589.724 447.155C586.949 443.777 584.206 440.362 581.162 437.218C575.576 431.446 568.596 426.346 560.242 426.207C555.329 426.126 550.576 427.683 546.012 429.332C541.092 431.11 536.184 432.922 531.27 434.717L501.634 445.545L494.225 448.252C492.911 448.732 493.479 450.85 494.808 450.364V450.364Z" fill="#E4E4E4"/>
<path d="M204.457 329.133C196.894 325.411 188.477 323.766 180.068 324.366C171.658 324.967 163.561 327.792 156.606 332.552C182.819 337.069 208.746 343.114 234.254 350.655C223.662 344.454 215.376 334.739 204.457 329.133Z" fill="white"/>
<path d="M156.458 332.525L153.579 334.863C154.553 334.045 155.566 333.278 156.606 332.552C156.556 332.543 156.508 332.534 156.458 332.525Z" fill="#F2F2F2"/>
<path d="M575.409 450.471C572.512 446.949 569.38 443.26 565.047 441.83L561.001 441.989C591.797 496.348 633.389 543.847 683.225 581.57C647.286 537.871 611.348 494.171 575.409 450.471Z" fill="white"/>
<g opacity="0.17">
<path opacity="0.17" d="M654.361 249.525C662.519 245.972 645.975 243.904 627.204 243.223C608.433 242.543 585.726 242.581 573.731 240.647C562.129 238.776 562.984 235.449 562.008 232.435C561.032 229.421 556.572 226.331 538.469 225.661C515.911 224.826 478.711 228.04 461.682 226.11C445.79 224.31 455.236 218.662 432.064 218.446C418.832 218.323 401.785 220.185 387.062 220.634C376.626 221.086 366.17 220.542 355.837 219.008C348.661 217.833 343.662 216.344 335.585 215.307C314.381 212.583 272.895 213.499 235.866 216.99C198.838 220.48 167.099 226.201 149.198 231.867C131.298 237.533 126.353 243.112 130.522 247.843C133.185 250.863 139.998 253.688 156.526 254.902C187.44 257.172 242.479 253.264 274.423 255.33C292.227 256.481 300.126 259.336 315.747 260.897C332.529 262.575 357.096 262.664 381.234 262.625C431.492 262.542 483.035 262.026 535.594 261.08C557.546 260.685 580.548 260.171 603.908 258.288C627.268 256.405 651.094 252.772 656.022 249.367" fill="white"/>
</g>
<path d="M306.87 179.98C309.206 179.98 311.101 178.088 311.101 175.754C311.101 173.42 309.206 171.528 306.87 171.528C304.533 171.528 302.639 173.42 302.639 175.754C302.639 178.088 304.533 179.98 306.87 179.98Z" fill="white"/>
<path d="M410.406 132.486C411.808 132.486 412.944 131.351 412.944 129.951C412.944 128.55 411.808 127.415 410.406 127.415C409.004 127.415 407.867 128.55 407.867 129.951C407.867 131.351 409.004 132.486 410.406 132.486Z" fill="white"/>
<path d="M270.415 289.278C271.817 289.278 272.953 288.143 272.953 286.743C272.953 285.342 271.817 284.207 270.415 284.207C269.013 284.207 267.877 285.342 267.877 286.743C267.877 288.143 269.013 289.278 270.415 289.278Z" fill="white"/>
<path d="M561.705 171.204C563.106 171.204 564.243 170.068 564.243 168.668C564.243 167.268 563.106 166.132 561.705 166.132C560.303 166.132 559.166 167.268 559.166 168.668C559.166 170.068 560.303 171.204 561.705 171.204Z" fill="white"/>
<path d="M393.433 243.243C394.835 243.243 395.971 242.108 395.971 240.708C395.971 239.307 394.835 238.172 393.433 238.172C392.031 238.172 390.894 239.307 390.894 240.708C390.894 242.108 392.031 243.243 393.433 243.243Z" fill="white"/>
<path d="M462.721 198.042C464.123 198.042 465.26 196.907 465.26 195.506C465.26 194.106 464.123 192.971 462.721 192.971C461.319 192.971 460.183 194.106 460.183 195.506C460.183 196.907 461.319 198.042 462.721 198.042Z" fill="white"/>
<path d="M590.977 333.586C592.379 333.586 593.515 332.451 593.515 331.051C593.515 329.65 592.379 328.515 590.977 328.515C589.575 328.515 588.438 329.65 588.438 331.051C588.438 332.451 589.575 333.586 590.977 333.586Z" fill="white"/>
<path d="M104.544 312.398C105.946 312.398 107.082 311.263 107.082 309.862C107.082 308.462 105.946 307.327 104.544 307.327C103.142 307.327 102.006 308.462 102.006 309.862C102.006 311.263 103.142 312.398 104.544 312.398Z" fill="white"/>
<path d="M719.383 607.548V656.888C719.375 662.737 717.045 668.345 712.905 672.481C708.764 676.617 703.151 678.944 697.295 678.952H67.7046C61.8491 678.944 56.2357 676.617 52.0953 672.481C47.9548 668.345 45.6252 662.737 45.6172 656.888V595.245C77.9967 587.327 111.291 583.773 144.615 584.679C225.074 586.431 303.653 607.887 383.363 618.99C477.227 632.04 572.533 630.73 666.002 615.105C683.622 612.153 701.566 608.706 719.383 607.548Z" fill="#3F3D56"/>
<path d="M174.107 165.66C165.432 165.66 156.952 163.09 149.74 158.276C142.527 153.462 136.905 146.619 133.586 138.613C130.266 130.608 129.398 121.798 131.09 113.299C132.782 104.801 136.959 96.9938 143.093 90.8665C149.227 84.7391 157.042 80.5663 165.55 78.8758C174.058 77.1853 182.877 78.0529 190.891 81.369C198.905 84.6851 205.755 90.3007 210.575 97.5057C215.394 104.711 217.966 113.181 217.966 121.847C217.953 133.463 213.328 144.599 205.106 152.813C196.883 161.027 185.735 165.647 174.107 165.66Z" fill="white"/>
<path d="M373.493 120.512C362.072 108.544 348.809 97.627 333.108 91.8579C328.734 90.244 324.199 89.1056 319.581 88.4623C319.544 88.4572 319.509 88.4647 319.472 88.4617C319.397 88.4424 319.321 88.4275 319.244 88.417C312.785 87.5951 306.23 87.9904 299.917 89.5826C296.83 90.3564 293.818 91.4044 290.918 92.714C288.008 94.1324 285.188 95.7288 282.474 97.4943C276.731 100.929 270.407 103.285 263.815 104.448C260.506 105.043 257.155 105.371 253.794 105.43C250.934 105.333 248.079 105.744 245.363 106.643C242.411 107.752 239.759 109.534 237.62 111.849C235.48 114.163 233.911 116.945 233.039 119.972C232.972 120.242 232.992 120.526 233.097 120.783C233.202 121.041 233.386 121.258 233.622 121.404C234.37 121.939 235.098 122.546 235.884 123.022C236.583 123.342 237.329 123.545 238.093 123.624C239.342 123.887 240.592 124.143 241.844 124.391C246.456 125.303 251.087 126.111 255.737 126.815C265.147 128.238 274.607 129.24 284.118 129.822C303.172 130.975 322.291 130.401 341.241 128.107C351.89 126.818 362.468 124.991 372.933 122.631C373.145 122.569 373.337 122.454 373.491 122.296C373.645 122.138 373.755 121.943 373.812 121.729C373.868 121.516 373.868 121.292 373.812 121.079C373.757 120.865 373.646 120.67 373.493 120.512Z" fill="#F0F0F0"/>
<path d="M176.155 148.422C171.781 146.808 167.246 145.669 162.628 145.026C162.591 145.021 162.556 145.029 162.519 145.026C162.444 145.006 162.367 144.991 162.291 144.981C155.832 144.159 149.277 144.554 142.964 146.146C139.877 146.92 136.865 147.968 133.965 149.278C131.055 150.696 128.235 152.293 125.521 154.058C119.778 157.492 113.454 159.849 106.862 161.012C103.553 161.607 100.202 161.935 96.8405 161.994C93.9806 161.897 91.1262 162.308 88.4097 163.206C85.4578 164.315 82.8061 166.098 80.6664 168.412C78.5267 170.727 76.9581 173.509 76.0859 176.536C76.0186 176.806 76.0389 177.09 76.1437 177.347C76.2486 177.604 76.4325 177.822 76.6691 177.968C77.4167 178.503 78.1454 179.11 78.9308 179.586C79.6295 179.906 80.3757 180.109 81.14 180.188C82.3887 180.451 83.639 180.707 84.8909 180.955C89.5027 181.867 94.1338 182.675 98.784 183.379C108.194 184.801 117.654 185.804 127.165 186.385C146.219 187.538 165.338 186.964 184.287 184.671C194.937 183.382 205.515 181.554 215.98 179.195C216.192 179.133 216.384 179.017 216.538 178.859C216.692 178.701 216.802 178.506 216.859 178.293C216.915 178.08 216.915 177.856 216.859 177.643C216.804 177.429 216.693 177.234 216.54 177.076C205.119 165.108 191.856 154.191 176.155 148.422Z" fill="#F0F0F0"/>
<path opacity="0.15" d="M202.732 544.374C202.707 544.877 202.654 545.379 202.574 545.876C203.937 543.786 204.721 541.372 204.847 538.88C204.866 538.499 204.906 538.119 204.959 537.74C203.635 539.712 202.866 542.003 202.732 544.374V544.374Z" fill="black"/>
<path opacity="0.15" d="M207.133 527.395C208.243 527.875 209.413 528.206 210.611 528.377C211.072 527.891 211.498 527.372 211.885 526.824C210.356 527.335 208.739 527.529 207.133 527.395V527.395Z" fill="black"/>
<path opacity="0.15" d="M212.259 522.807C212.382 524.015 212.349 525.233 212.159 526.432C212.822 525.424 213.351 524.334 213.733 523.19L213.795 523.005L213.601 522.99C213.15 522.952 212.703 522.891 212.259 522.807V522.807Z" fill="black"/>
<path opacity="0.15" d="M210.965 509.549C209.677 508.09 208.1 506.915 206.332 506.099C204.565 505.282 202.647 504.843 200.701 504.808C199.463 504.793 198.242 504.517 197.118 503.999C195.995 503.481 194.993 502.732 194.178 501.801L194.063 501.67C192.996 500.457 191.784 499.38 190.454 498.461L190.353 498.391L190.263 498.476C189.415 499.275 188.465 499.96 187.439 500.514C188.185 499.735 188.804 498.843 189.273 497.871L189.337 497.744L189.214 497.672C186.531 496.104 183.515 495.191 180.412 495.009C177.309 494.826 174.207 495.379 171.359 496.622C168.511 497.866 165.997 499.764 164.023 502.162C162.049 504.561 160.671 507.391 160.001 510.423C161.292 508.158 163.02 506.171 165.085 504.578C167.15 502.985 169.512 501.817 172.032 501.141C174.553 500.466 177.182 500.298 179.768 500.645C182.354 500.993 184.846 501.85 187.098 503.166L187.221 503.238L187.157 503.365C186.689 504.337 186.07 505.229 185.323 506.008C186.35 505.454 187.299 504.769 188.148 503.97L188.237 503.885L188.339 503.955C189.668 504.874 190.88 505.951 191.947 507.164L192.062 507.295C192.877 508.226 193.879 508.975 195.003 509.493C196.127 510.011 197.347 510.287 198.585 510.302C201.821 510.357 204.939 511.531 207.405 513.625C209.871 515.719 211.534 518.602 212.111 521.784C212.795 521.661 213.471 521.497 214.134 521.292L214.224 521.265L214.24 521.172C214.603 519.114 214.497 517 213.93 514.987C213.363 512.975 212.35 511.116 210.965 509.549Z" fill="black"/>
</svg>
